<svg width="80" height="40" viewBox="0 0 80 40" fill="none" xmlns="http://www.w3.org/2000/svg">
<path d="M0 20C0 8.95431 8.95431 0 20 0V0C31.0457 0 40 8.95431 40 20V20C40 31.0457 31.0457 40 20 40V40C8.95431 40 0 31.0457 0 20V20Z" fill="#111111"/>
<rect x="40" width="40" height="40" rx="5" fill="#EEEEEE"/>
<path d="M13.4433 21.664V14.8H15.1393V21.424C15.1393 23.696 16.0193 24.832 17.7793 24.832C19.5553 24.832 20.4353 23.696 20.4353 21.424V14.8H22.1313V21.664C22.1313 24.656 20.5313 26.256 17.7793 26.256C15.0273 26.256 13.4433 24.672 13.4433 21.664ZM24.7272 26V14.8H26.4232V26H24.7272Z" fill="white"/>
<path d="M50.5918 21.664V14.8H52.2878V21.424C52.2878 23.696 53.1678 24.832 54.9278 24.832C56.7038 24.832 57.5838 23.696 57.5838 21.424V14.8H59.2798V21.664C59.2798 24.656 57.6798 26.256 54.9278 26.256C52.1758 26.256 50.5918 24.672 50.5918 21.664ZM62.4516 26H60.4836L64.6116 20.16L60.8356 14.8H62.8676L65.6196 18.96C65.7316 18.784 65.9236 18.512 66.1636 18.144L68.3716 14.8H70.3396L66.5796 20.144L70.7236 26H68.6756L66.0676 22.128L65.5716 21.36C65.3316 21.728 65.1556 21.984 65.0436 22.144L62.4516 26Z" fill="#111111"/>
</svg>
